<svg height="512pt" viewBox="-6 0 512 512" width="512pt" xmlns="http://www.w3.org/2000/svg"><path d="m189.253906 225.96875v268.785156c0 9.519532-7.71875 17.246094-17.234375 17.246094h-154.785156c-9.519531 0-17.234375-7.726562-17.234375-17.246094v-268.785156c0-9.53125 7.714844-17.246094 17.234375-17.246094h154.78125c9.519531 0 17.238281 7.71875 17.238281 17.246094zm0 0" fill="#5ecef4"/><path d="m189.253906 225.96875v268.785156c0 9.519532-7.71875 17.246094-17.234375 17.246094h-77.394531v-303.277344h77.390625c9.519531 0 17.238281 7.71875 17.238281 17.246094zm0 0" fill="#2fc0f0"/><path d="m132.253906 241.132812c-9.519531 0-17.238281 7.71875-17.238281 17.238282v13.347656c0 9.519531 7.71875 17.238281 17.238281 17.238281 9.523438 0 17.242188-7.71875 17.242188-17.238281v-13.347656c0-9.519532-7.71875-17.238282-17.242188-17.238282zm0 0" fill="#d8dceb"/><path d="m132.253906 309.859375c-9.519531 0-17.238281 7.71875-17.238281 17.238281v13.347656c0 9.519532 7.71875 17.238282 17.238281 17.238282 9.523438 0 17.242188-7.71875 17.242188-17.238282v-13.347656c0-9.519531-7.71875-17.238281-17.242188-17.238281zm0 0" fill="#d8dceb"/><g fill="#edf0f5"><path d="m57 241.132812c-9.519531 0-17.238281 7.71875-17.238281 17.238282v13.347656c0 9.519531 7.71875 17.238281 17.238281 17.238281 9.523438 0 17.242188-7.71875 17.242188-17.238281v-13.347656c0-9.519532-7.71875-17.238282-17.242188-17.238282zm0 0"/><path d="m57 309.859375c-9.519531 0-17.238281 7.71875-17.238281 17.238281v13.347656c0 9.519532 7.71875 17.238282 17.238281 17.238282 9.523438 0 17.242188-7.71875 17.242188-17.238282v-13.347656c0-9.519531-7.71875-17.238281-17.242188-17.238281zm0 0"/><path d="m132.25 412.992188v98.996093h-75.25v-98.996093c0-3.109376 2.523438-5.632813 5.632812-5.632813h63.984376c3.113281 0 5.632812 2.523437 5.632812 5.632813zm0 0"/></g><path d="m132.25 412.992188v98.996093h-37.625v-104.628906h31.992188c3.113281 0 5.632812 2.523437 5.632812 5.632813zm0 0" fill="#d8dceb"/><path d="m177.382812 58.0625c0 8.738281-7.09375 15.835938-15.835937 15.835938h-65.273437c-8.992188 0-17.027344 4.1875-22.230469 10.714843-3.925781 4.875-6.269531 11.070313-6.269531 17.785157v65.273437c0 8.738281-7.09375 15.835937-15.835938 15.835937s-15.835938-7.097656-15.835938-15.835937v-65.273437c0-15.71875 6.058594-30.042969 15.960938-40.777344 11-11.917969 26.75-19.394532 44.210938-19.394532h65.273437c8.742187 0 15.835937 7.09375 15.835937 15.835938zm0 0" fill="#5ecef4"/><path d="m52.066406 61.617188 21.976563 22.996093c-3.925781 4.875-6.269531 11.070313-6.269531 17.785157v65.273437c0 8.738281-7.09375 15.835937-15.835938 15.835937-8.738281 0-15.832031-7.097656-15.832031-15.835937v-65.273437c-.003907-15.71875 6.058593-30.042969 15.960937-40.78125zm0 0" fill="#2fc0f0"/><path d="m437.253906 339.046875v65.273437c0 16.390626-6.585937 31.257813-17.25 42.128907-10.925781 11.128906-26.125 18.042969-42.921875 18.042969h-65.273437c-8.738282 0-15.832032-7.09375-15.832032-15.835938s7.09375-15.835938 15.832032-15.835938h65.273437c8.320313 0 15.800781-3.578124 21.019531-9.277343 4.644532-5.058594 7.484376-11.824219 7.484376-19.222657v-65.273437c0-8.738281 7.09375-15.835937 15.832031-15.835937 8.742187 0 15.835937 7.097656 15.835937 15.835937zm0 0" fill="#ff7c48"/><path d="m420.003906 446.449219c-10.925781 11.128906-26.125 18.042969-42.921875 18.042969h-65.269531c-8.742188 0-15.835938-7.09375-15.835938-15.835938s7.09375-15.835938 15.835938-15.835938h65.269531c8.320313 0 15.804688-3.578124 21.019531-9.277343zm0 0" fill="#ff6426"/><path d="m455.941406 109.125v141.195312c0 8.738282-7.09375 15.832032-15.835937 15.832032h-175.535157c-8.753906 0-15.835937-7.09375-15.835937-15.832032v-141.195312l103.601563-93.289062zm0 0" fill="#ff7c48"/><path d="m455.941406 109.125v141.195312c0 8.738282-7.09375 15.832032-15.835937 15.832032h-87.769531v-250.316406zm0 0" fill="#ff6426"/><path d="m495.589844 144.835938c-5.847656 6.492187-15.867188 7.019531-22.359375 1.160156l-120.894531-108.855469-120.894532 108.867187c-6.503906 5.847657-16.511718 5.320313-22.367187-1.171874-5.847657-6.503907-5.320313-16.519532 1.171875-22.371094l131.492187-118.402344c3.019531-2.710938 6.808594-4.0625 10.597657-4.0625 3.800781 0 7.582031 1.351562 10.601562 4.0625l131.480469 118.402344c6.503906 5.851562 7.019531 15.867187 1.171875 22.371094zm0 0" fill="#ffb99d"/><path d="m495.589844 144.835938c-5.847656 6.492187-15.867188 7.019531-22.359375 1.160156l-120.894531-108.855469v-37.140625c3.800781 0 7.582031 1.351562 10.601562 4.0625l131.480469 118.402344c6.503906 5.851562 7.019531 15.867187 1.171875 22.371094zm0 0" fill="#ff946a"/><path d="m408.890625 163.914062v102.242188h-113.105469v-102.242188c0-8.742187 7.082032-15.835937 15.835938-15.835937h81.433594c8.738281 0 15.835937 7.09375 15.835937 15.835937zm0 0" fill="#edf0f5"/><path d="m408.890625 163.914062v102.242188h-56.554687v-118.078125h40.71875c8.738281 0 15.835937 7.09375 15.835937 15.835937zm0 0" fill="#d8dceb"/><path d="m408.890625 163.914062v23.285157h-113.105469v-23.285157c0-8.742187 7.082032-15.835937 15.835938-15.835937h81.433594c8.738281 0 15.835937 7.09375 15.835937 15.835937zm0 0" fill="#d8dceb"/><path d="m408.890625 163.914062v23.285157h-56.554687v-39.121094h40.71875c8.738281 0 15.835937 7.09375 15.835937 15.835937zm0 0" fill="#afb7cc"/><path d="m381.15625 96.285156c0 8.742188-7.09375 15.835938-15.835938 15.835938h-25.96875c-8.738281 0-15.832031-7.09375-15.832031-15.835938 0-8.75 7.09375-15.832031 15.832031-15.832031h25.96875c8.742188 0 15.835938 7.082031 15.835938 15.832031zm0 0" fill="#edf0f5"/><path d="m381.15625 96.285156c0 8.742188-7.09375 15.835938-15.835938 15.835938h-12.984374v-31.667969h12.984374c8.742188 0 15.835938 7.082031 15.835938 15.832031zm0 0" fill="#d8dceb"/></svg>